<?xml version="1.0" encoding="utf-8"?>
<!-- Generator: Adobe Illustrator 24.0.3, SVG Export Plug-In . SVG Version: 6.00 Build 0)  -->
<svg version="1.1" id="Layer_1" xmlns="http://www.w3.org/2000/svg" xmlns:xlink="http://www.w3.org/1999/xlink" x="0px" y="0px"
	 viewBox="0 0 374.6 520.7" style="enable-background:new 0 0 374.6 520.7;" xml:space="preserve">
<style type="text/css">
	.st0{fill:#00688D;}
	.st1{fill:#00A5C1;}
</style>
<title>Logo 12 Feb</title>
<polygon class="st0" points="336.5,428.4 337.4,250.8 138.9,246.8 "/>
<polygon class="st1" points="44.7,203.4 44.7,520.7 374.6,519.5 "/>
<path class="st1" d="M239.6,21.8L23.5,22.5L0,0l244.4,0.4c74.1,1.9,101.2,3.4,106.3,66l0.5,28.6c0,94.5-16.7,105-74,105l-180-2
	l-28-26.1l150.7,2.4c0,0,61.8,0.7,71.7-4.4c25.5-13.1,26.8-24.6,26.8-75.1C318.3,41.8,330.1,22.9,239.6,21.8z"/>
</svg>
