<?xml version="1.0" encoding="utf-8"?>
<!-- Generator: Adobe Illustrator 24.1.2, SVG Export Plug-In . SVG Version: 6.00 Build 0)  -->
<svg version="1.1" id="Layer_1" xmlns="http://www.w3.org/2000/svg" xmlns:xlink="http://www.w3.org/1999/xlink" x="0px" y="0px"
	 viewBox="0 0 1405.4 381.8" style="enable-background:new 0 0 1405.4 381.8;" xml:space="preserve">
<style type="text/css">
	.st0{fill:#47C1BF;}
	.st1{fill:#4295CD;}
	.st2{fill:#FFE01B;}
	.st3{fill:#ED3034;}
	.st4{fill:#FFFFFF;}
	.st5{fill:#3C2415;}
	.st6{fill:#F4A641;}
	.st7{fill:#529777;}
	.st8{fill:#89EA6C;}
	.st9{fill:#5C6AC4;}
	.st10{fill:#17256D;}
	.st11{fill:#F2FAFF;}
	.st12{fill:#C83213;}
	.st13{fill:#64D841;}
	.st14{fill:#68B2E3;}
	.st15{fill:#EEF1FF;}
	.st16{font-family:'Handlee-Regular';}
	.st17{font-size:38.09px;}
	.st18{letter-spacing:-2;}
</style>
<g id="Layer_2_1_">
	<g id="Layer_1-2">
		<rect x="1.4" y="1.2" class="st0" width="681.9" height="190.5"/>
		<rect x="1.4" y="191.3" class="st1" width="680.2" height="190.5"/>
		<rect x="681.5" y="191.3" class="st2" width="723.8" height="190.5"/>
		<rect x="682.2" y="1.2" class="st3" width="723.2" height="190.5"/>
		<path class="st4" d="M742,147.4c0-6.5-26.1-11.8-58.3-11.8s-58.3,5.3-58.3,11.8c0,0.2,0,0.4,0.1,0.6h-0.1v17.8
			c1.5,0.8,3.1,1.6,4.7,2.2l3.9,28.3c-1.8-0.7-2.8-1.6-3.1-2.5l9.1,65c0,1.5,1,2.5,3.1,3.3l7,50.5c0,3.7,15.1,6.7,33.7,6.7
			s33.7-3,33.7-6.7l7-51c1.7-0.3,3.4-1,4.7-2.1l7-66c0,1.1-1,2.1-2.7,2.8l4-28.8c1.6-0.7,3.1-1.5,4.6-2.4v-17l-0.1-0.1
			C742,147.9,742,147.7,742,147.4z"/>
		<path class="st5" d="M683.7,323.1c-8.2,0.1-16.5-0.6-24.6-2c-5.9-1.2-12.7-3.2-12.9-8.2l-6.7-48.3c-2-1.1-3.3-3.2-3.4-5.5l-9-64.8
			c-0.2-1.7,0.7-3.3,2.2-4l-2.7-19.6c-1.1-0.5-2.1-1-3-1.5c-1.2-0.7-2-1.9-2-3.3V148c0-0.1,0-0.2,0-0.3c0-0.1,0-0.2,0-0.3
			c0-5.5,6.4-9.3,20.2-12.1c11.2-2.3,26.2-3.5,42-3.5s30.7,1.2,42,3.5c13.7,2.8,20.2,6.6,20.2,12.1c0,0.1,0,0.3,0,0.4s0,0.2,0,0.3
			v17c0,1.3-0.7,2.6-1.8,3.3c-0.9,0.6-2,1.1-3.1,1.7l-2.8,20.1c1.1,0.7,1.8,1.9,1.8,3.3c0,0.3,0,0.7-0.1,1l-6.9,65.4
			c-0.1,0.9-0.5,1.7-1.2,2.4c-1.1,1-2.5,1.8-3.9,2.3l-6.7,48.4c-0.3,5-7,7-12.9,8.2C700.2,322.5,691.9,323.2,683.7,323.1z
			 M653.7,311.4c2.4,1.5,12.8,4,30,4s27.5-2.5,30-4l7-50.4c0.2-1.6,1.4-2.8,2.9-3.2c0.7-0.2,1.3-0.4,2-0.6l6.1-57.5
			c-0.2-0.1-0.3-0.2-0.5-0.3c-1.1-0.8-1.7-2.2-1.5-3.6l4-28.8c0.2-1.3,1-2.5,2.2-3c0.8-0.4,1.6-0.7,2.3-1.1v-14
			c-0.1-0.4-0.1-0.8-0.1-1.2c-2.7-2.9-21-8.2-54.4-8.2s-51.8,5.3-54.4,8.2c0,0.3,0,0.7-0.1,1v14.7c0.7,0.4,1.5,0.7,2.3,1
			c1.3,0.5,2.1,1.7,2.3,3l3.9,28.3c0.2,1.4-0.4,2.7-1.5,3.6c-0.2,0.2-0.5,0.3-0.7,0.4l8.2,58.4c0.2,0.1,0.4,0.2,0.5,0.2
			c1.4,0.5,2.3,1.7,2.5,3.1L653.7,311.4z"/>
		<path class="st4" d="M683.7,142.2c-30.8,0-55.7,4.9-55.7,10.9c0,0.2,0,0.4,0.1,0.6L650,312.6c0,3.7,15.1,6.7,33.7,6.7
			s33.7-3,33.7-6.7l21.9-158.9c0.1-0.2,0.1-0.4,0.1-0.6C739.4,147.1,714.4,142.2,683.7,142.2z"/>
		<path class="st5" d="M683.7,320.7c-13,0-34.9-1.7-35.1-8L626.7,154c-0.1-0.3-0.1-0.6-0.1-0.9c0-9.1,34.2-12.4,57.1-12.4
			s57.1,3.3,57.1,12.4c0,0.3,0,0.6-0.1,0.9l-21.9,158.7C718.6,319,696.7,320.7,683.7,320.7z M683.7,143.6c-33.1,0-54.2,5.6-54.2,9.5
			c0,0.1,0,0.1,0,0.2c0,0.1,0,0.1,0,0.2l21.9,158.9c0,0.1,0,0.1,0,0.2c0.4,1.8,11.8,5.3,32.3,5.3s31.9-3.4,32.3-5.3
			c0-0.1,0-0.1,0-0.2l21.9-158.9c0-0.1,0-0.1,0-0.2c0-0.1,0-0.1,0-0.2C737.9,149.2,716.8,143.6,683.7,143.6z"/>
		<ellipse class="st4" cx="682.6" cy="153.1" rx="55.7" ry="10.9"/>
		<path class="st5" d="M682.6,165.4c-23,0-57.1-3.3-57.1-12.4s34.2-12.4,57.1-12.4s57.1,3.3,57.1,12.4S705.6,165.4,682.6,165.4z
			 M682.6,143.6c-33.1,0-54.3,5.6-54.3,9.5s21.1,9.5,54.3,9.5s54.2-5.6,54.2-9.5S715.7,143.6,682.6,143.6z"/>
		<path class="st4" d="M625.4,165.8V148h116.3l0.3,0.2v17c-2.7,1.6-5.5,2.9-8.4,3.9c-12,4.3-30.1,7-50.4,7
			c-20.9,0-39.6-2.9-51.5-7.5C629.5,167.8,627.4,166.9,625.4,165.8z"/>
		<path class="st5" d="M683.2,177.6c-20.4,0-39.4-2.8-52.1-7.6c-2.2-0.8-4.4-1.8-6.4-3c-0.5-0.2-0.7-0.7-0.7-1.2V148
			c0-0.8,0.6-1.4,1.4-1.4h116.3c0.3,0,0.5,0.1,0.8,0.2l0.3,0.2c0.4,0.3,0.6,0.7,0.6,1.2v17c0,0.5-0.3,1-0.7,1.2
			c-2.8,1.6-5.7,3-8.7,4C721.4,175,702.9,177.6,683.2,177.6z M626.8,164.9c1.7,0.9,3.5,1.7,5.3,2.4c12.4,4.7,31,7.4,51,7.4
			c19.4,0,37.6-2.5,49.9-7c2.6-0.9,5.1-2,7.5-3.4v-14.9H626.8V164.9z"/>
		<ellipse class="st4" cx="683.7" cy="147.4" rx="58.3" ry="11.8"/>
		<path class="st5" d="M683.7,160.6c-29.7,0-59.7-4.5-59.7-13.2s30-13.2,59.7-13.2s59.7,4.5,59.7,13.2S713.4,160.6,683.7,160.6z
			 M683.7,137.1c-35.2,0-56.9,6-56.9,10.3s21.6,10.3,56.9,10.3s56.9-6,56.9-10.3S718.9,137.1,683.7,137.1z"/>
		<path class="st6" d="M736.1,193.5l-7,66c-3.2,3.1-14.7,4.2-45.5,4.2s-43.8,0.6-43.8-4.9l-9.1-65.5c0,5.4,22.1,6.8,52.9,6.8
			S736.1,198.9,736.1,193.5z"/>
		<path class="st5" d="M669.5,265.1c-11.1,0-18-0.1-22.7-0.8c-3.8-0.5-8.2-1.6-8.3-5.5l-9-64.8c-0.1-0.5-0.1-1.1,0-1.6l0,0
			c1.2-1.1,2.6-0.5,2.8,0.6l0.1,0.4c0.2,0.6,1.9,2.6,14.5,3.9c8.4,0.9,20.1,1.2,36.9,1.2c17.3,0,28.7-0.4,36.9-1.1
			c12.5-1.2,13.9-3.3,14.1-3.8v-0.3c0.1-1.1,1.5-1.9,2.8-0.7c0.1,0.5,0.1,1,0,1.5l-6.9,65.5c0,0.3-0.2,0.6-0.4,0.9
			c-3.6,3.5-14.9,4.6-46.5,4.6H669.5z M632.8,197.4l8.5,61.1c0,0.1,0,0.1,0,0.2c0,0.5,0,1.9,5.8,2.7c4.5,0.6,11.3,0.7,22.3,0.7h14.2
			c23.5,0,40.1-0.6,44.1-3.5l6.5-61.2c-6,2.9-21,3.9-50.5,3.9C652,201.4,638.4,200,632.8,197.4z"/>
		<path class="st1" d="M767.2,120c0,0,22.1-20,51.5-2.2C818.7,117.7,796.7,104.4,767.2,120z"/>
		<path class="st7" d="M760.1,92.8c0,0,10.8-27.8,45-25C805.1,67.7,779.5,65.7,760.1,92.8z"/>
		<path class="st8" d="M734,92.6c0,0,0.3-29.8,33.3-39.3C767.2,53.3,742.5,60.4,734,92.6z"/>
		<path class="st4" d="M687.2,106.5c0,0-6.8-29,22.9-46.1C710.1,60.4,687.8,73.2,687.2,106.5z"/>
		<path class="st9" d="M595.8,114.3c0,0-15.8-25.3-48.8-16.3C547,98.1,571.8,91.3,595.8,114.3z"/>
		<path class="st8" d="M626.6,89c0,0-10.8-27.8-45-25C581.5,63.9,607.2,61.9,626.6,89z"/>
		<path class="st2" d="M657.2,69.3c0,0,5-29.4-25.7-44.7C631.5,24.7,654.6,36.1,657.2,69.3z"/>
		<circle class="st10" cx="556.5" cy="71.1" r="3.6"/>
		<circle class="st11" cx="528" cy="42.5" r="3.6"/>
		<circle class="st12" cx="628" cy="49.7" r="3.6"/>
		<circle class="st2" cx="570.8" cy="28.3" r="3.6"/>
		<circle class="st10" cx="763.7" cy="42.5" r="3.6"/>
		<circle class="st13" cx="713.7" cy="28.3" r="3.6"/>
		<circle class="st2" cx="620.8" cy="121.1" r="3.6"/>
		<circle class="st14" cx="835.1" cy="78.2" r="3.6"/>
		<circle class="st8" cx="842.2" cy="35.4" r="3.6"/>
		<circle class="st15" cx="742.2" cy="114" r="3.6"/>
		<circle class="st2" cx="799.4" cy="21.1" r="3.6"/>
		<text transform="matrix(1 0 0 1 652.96 246.1)" class="st16 st17 st18">T</text>
		<text transform="matrix(1 0 0 1 674.94 246.1)" class="st16 st17">.D</text>
	</g>
</g>
</svg>
