<svg width="16" height="16" viewBox="0 0 16 16" fill="none" xmlns="http://www.w3.org/2000/svg">
<path d="M6.86014 1.90697L1.21347 11.3336C1.09705 11.5352 1.03545 11.7638 1.0348 11.9966C1.03414 12.2295 1.09446 12.4584 1.20975 12.6606C1.32504 12.8629 1.49129 13.0315 1.69194 13.1495C1.8926 13.2676 2.12067 13.3311 2.35347 13.3336H13.6468C13.8796 13.3311 14.1077 13.2676 14.3083 13.1495C14.509 13.0315 14.6752 12.8629 14.7905 12.6606C14.9058 12.4584 14.9661 12.2295 14.9655 11.9966C14.9648 11.7638 14.9032 11.5352 14.7868 11.3336L9.14014 1.90697C9.02129 1.71104 8.85395 1.54905 8.65427 1.43662C8.45458 1.3242 8.22929 1.26514 8.00014 1.26514C7.77098 1.26514 7.54569 1.3242 7.34601 1.43662C7.14632 1.54905 6.97898 1.71104 6.86014 1.90697V1.90697Z" stroke="#25282B" stroke-width="2" stroke-linecap="round" stroke-linejoin="round"/>
<path d="M8 10.6665H8.00667" stroke="#25282B" stroke-width="2" stroke-linecap="round" stroke-linejoin="round"/>
<path d="M8 5.3335V8.00016" stroke="#25282B" stroke-width="2" stroke-linecap="round" stroke-linejoin="round"/>
</svg>
