<svg width="20" height="20" viewBox="0 0 20 20" fill="none" xmlns="http://www.w3.org/2000/svg">
<path d="M8.57502 2.38334L1.51668 14.1667C1.37116 14.4187 1.29416 14.7044 1.29334 14.9954C1.29253 15.2865 1.36793 15.5726 1.51204 15.8254C1.65615 16.0783 1.86396 16.289 2.11477 16.4365C2.36559 16.5841 2.65068 16.6635 2.94168 16.6667H17.0583C17.3494 16.6635 17.6344 16.5841 17.8853 16.4365C18.1361 16.289 18.3439 16.0783 18.488 15.8254C18.6321 15.5726 18.7075 15.2865 18.7067 14.9954C18.7059 14.7044 18.6289 14.4187 18.4834 14.1667L11.425 2.38334C11.2765 2.13843 11.0673 1.93594 10.8177 1.79541C10.5681 1.65488 10.2865 1.58105 10 1.58105C9.71357 1.58105 9.43196 1.65488 9.18235 1.79541C8.93275 1.93594 8.72358 2.13843 8.57502 2.38334V2.38334Z" stroke="#25282B" stroke-width="2" stroke-linecap="round" stroke-linejoin="round"/>
<path d="M10 13.3335H10.0083" stroke="#25282B" stroke-width="2" stroke-linecap="round" stroke-linejoin="round"/>
<path d="M10 6.6665V9.99984" stroke="#25282B" stroke-width="2" stroke-linecap="round" stroke-linejoin="round"/>
</svg>
