<svg width="24" height="24" viewBox="0 0 24 24" fill="none" xmlns="http://www.w3.org/2000/svg">
<path d="M10.29 2.8602L1.82002 17.0002C1.64539 17.3026 1.55299 17.6455 1.55201 17.9947C1.55103 18.3439 1.64151 18.6873 1.81445 18.9907C1.98738 19.2941 2.23675 19.547 2.53773 19.7241C2.83871 19.9012 3.18082 19.9964 3.53002 20.0002H20.47C20.8192 19.9964 21.1613 19.9012 21.4623 19.7241C21.7633 19.547 22.0127 19.2941 22.1856 18.9907C22.3585 18.6873 22.449 18.3439 22.448 17.9947C22.4471 17.6455 22.3547 17.3026 22.18 17.0002L13.71 2.8602C13.5318 2.56631 13.2807 2.32332 12.9812 2.15469C12.6817 1.98605 12.3438 1.89746 12 1.89746C11.6563 1.89746 11.3184 1.98605 11.0188 2.15469C10.7193 2.32332 10.4683 2.56631 10.29 2.8602V2.8602Z" stroke="#25282B" stroke-width="2" stroke-linecap="round" stroke-linejoin="round"/>
<path d="M12 16H12.01" stroke="#25282B" stroke-width="2" stroke-linecap="round" stroke-linejoin="round"/>
<path d="M12 8V12" stroke="#25282B" stroke-width="2" stroke-linecap="round" stroke-linejoin="round"/>
</svg>
