<svg width="20" height="20" viewBox="0 0 20 20" fill="none" xmlns="http://www.w3.org/2000/svg">
<path d="M10.0001 13.3332C11.841 13.3332 13.3334 11.8408 13.3334 9.99984C13.3334 8.15889 11.841 6.6665 10.0001 6.6665C8.15913 6.6665 6.66675 8.15889 6.66675 9.99984C6.66675 11.8408 8.15913 13.3332 10.0001 13.3332Z" stroke="#25282B" stroke-width="2" stroke-linecap="round" stroke-linejoin="round"/>
<path d="M13.3333 6.66696V10.8336C13.3333 11.4967 13.5967 12.1326 14.0655 12.6014C14.5344 13.0702 15.1703 13.3336 15.8333 13.3336C16.4963 13.3336 17.1322 13.0702 17.6011 12.6014C18.0699 12.1326 18.3333 11.4967 18.3333 10.8336V10.0003C18.3332 8.11949 17.6968 6.29403 16.5277 4.82074C15.3586 3.34745 13.7254 2.31298 11.8938 1.88554C10.0622 1.4581 8.13991 1.66283 6.43942 2.46644C4.73894 3.27004 3.3603 4.62526 2.52768 6.31173C1.69507 7.99821 1.45744 9.91674 1.85344 11.7554C2.24944 13.594 3.25578 15.2447 4.70883 16.4389C6.16187 17.633 7.97616 18.3006 9.85669 18.3329C11.7372 18.3653 13.5734 17.7605 15.0666 16.617" stroke="#25282B" stroke-width="2" stroke-linecap="round" stroke-linejoin="round"/>
</svg>
