<svg width="16" height="16" viewBox="0 0 16 16" fill="none" xmlns="http://www.w3.org/2000/svg">
<path d="M8.00004 10.6668C9.4728 10.6668 10.6667 9.47292 10.6667 8.00016C10.6667 6.5274 9.4728 5.3335 8.00004 5.3335C6.52728 5.3335 5.33337 6.5274 5.33337 8.00016C5.33337 9.47292 6.52728 10.6668 8.00004 10.6668Z" stroke="#25282B" stroke-width="2" stroke-linecap="round" stroke-linejoin="round"/>
<path d="M10.6667 5.33357V8.6669C10.6667 9.19734 10.8774 9.70604 11.2525 10.0811C11.6276 10.4562 12.1363 10.6669 12.6667 10.6669C13.1971 10.6669 13.7059 10.4562 14.0809 10.0811C14.456 9.70604 14.6667 9.19734 14.6667 8.6669V8.00024C14.6666 6.49559 14.1575 5.03522 13.2222 3.85659C12.2869 2.67796 10.9804 1.85039 9.51514 1.50844C8.04986 1.16648 6.512 1.33027 5.15161 1.97315C3.79122 2.61603 2.68831 3.70021 2.02222 5.04939C1.35613 6.39856 1.16602 7.9334 1.48283 9.40431C1.79963 10.8752 2.6047 12.1957 3.76713 13.1511C4.92957 14.1064 6.381 14.6405 7.88543 14.6663C9.38985 14.6922 10.8588 14.2084 12.0534 13.2936" stroke="#25282B" stroke-width="2" stroke-linecap="round" stroke-linejoin="round"/>
</svg>
