<svg width="299" height="184" viewBox="0 0 299 184" fill="none" xmlns="http://www.w3.org/2000/svg">
<mask id="mask0" style="mask-type:alpha" maskUnits="userSpaceOnUse" x="0" y="0" width="299" height="184">
<rect width="299" height="184" fill="#25282B"/>
</mask>
<g mask="url(#mask0)">
<path d="M302.843 130.395L302.941 329.686H-9.37891V164.041L-9.36252 163.981C-9.32808 163.856 -9.27662 163.671 -9.20889 163.429C-9.07343 162.946 -8.87287 162.237 -8.613 161.336C-8.09323 159.536 -7.33636 156.972 -6.38873 153.919C-4.49274 147.811 -1.83633 139.758 1.20972 131.96C4.26239 124.146 7.68119 116.653 11.0898 111.627C12.8015 109.102 14.4494 107.293 15.9726 106.346C16.7236 105.879 17.4052 105.646 18.0221 105.609C18.6252 105.572 19.2276 105.718 19.8482 106.111C21.9067 107.413 23.5954 109.912 25.1116 113.046C26.2462 115.391 27.2326 117.976 28.2029 120.519C28.5238 121.359 28.8429 122.195 29.165 123.017C30.4316 126.246 31.7691 129.318 33.452 131.205C34.3104 132.168 35.3295 132.905 36.5548 133.142C37.7962 133.383 39.0823 133.078 40.3997 132.281C41.446 131.648 42.3586 130.607 43.1703 129.314C43.9876 128.014 44.7419 126.395 45.4456 124.528C46.8528 120.795 48.0965 115.964 49.2265 110.46C51.4873 99.4476 53.3225 85.587 55.0761 72.1041C55.1517 71.5225 55.2272 70.9416 55.3026 70.3616C56.9776 57.4726 58.5904 45.0628 60.4462 35.8703C61.4178 31.058 62.4429 27.1973 63.5513 24.6278C64.1085 23.3361 64.6532 22.4521 65.162 21.9347C65.6517 21.4368 65.999 21.3754 66.269 21.4288C66.5029 21.4751 66.8452 21.6634 67.2768 22.198C67.7026 22.7256 68.1428 23.5022 68.5882 24.5369C69.4778 26.6035 70.3114 29.5164 71.1132 33.0489C72.5365 39.3204 73.8222 47.3705 75.1585 55.7376C75.3259 56.7859 75.4941 57.8392 75.6635 58.8946C77.1804 68.3463 78.79 77.9604 80.7531 85.5417C81.7342 89.3303 82.8143 92.6553 84.0351 95.2156C85.2318 97.7254 86.662 99.7157 88.4611 100.523C90.3634 101.376 92.206 100.822 93.8417 99.5702C95.4464 98.3425 96.9926 96.353 98.4982 93.9806C100.792 90.3665 103.134 85.6237 105.527 80.7766C106.279 79.2542 107.036 77.7215 107.798 76.2102C111.023 69.8147 114.336 63.8106 117.829 60.1881C119.571 58.3821 121.269 57.264 122.927 56.9146C124.533 56.5764 126.249 56.9277 128.146 58.3788C130.052 59.8365 131.84 62.3675 133.519 65.7976C135.19 69.2102 136.711 73.4213 138.127 78.1416C140.753 86.894 142.987 97.2849 145.159 107.388C145.331 108.187 145.502 108.984 145.673 109.778C148 120.58 150.292 130.902 152.95 138.168C154.274 141.788 155.727 144.762 157.395 146.661C158.237 147.618 159.176 148.353 160.234 148.729C161.315 149.113 162.446 149.095 163.591 148.662C164.76 148.219 165.774 147.271 166.664 146.046C167.561 144.81 168.393 143.209 169.173 141.327C170.733 137.563 172.14 132.536 173.431 126.721C176.015 115.082 178.171 100.111 180.129 85.3752C180.606 81.7858 181.071 78.2108 181.528 74.7002C182.949 63.7753 184.29 53.4733 185.652 45.2985C186.553 39.8932 187.455 35.467 188.384 32.4251C188.851 30.8957 189.306 29.7807 189.737 29.0766C190.121 28.4491 190.341 28.3735 190.365 28.3649C191.172 28.4299 191.925 28.8389 192.668 29.6552C193.429 30.4914 194.131 31.7052 194.797 33.2433C195.986 35.9898 196.969 39.5369 198.011 43.3014C198.139 43.7648 198.269 44.2314 198.399 44.7003C199.577 48.9271 200.865 53.3154 202.626 56.8063C204.374 60.2726 206.716 63.1137 210.133 63.8289C212.153 64.2517 213.91 63.2151 215.372 61.5776C216.836 59.9373 218.182 57.5105 219.454 54.6388C221.886 49.1457 224.176 41.7125 226.484 34.2164C226.594 33.859 226.704 33.5014 226.814 33.144C229.248 25.2459 231.715 17.3693 234.428 11.4944C235.786 8.55447 237.175 6.18371 238.608 4.57522C240.046 2.96145 241.404 2.24676 242.715 2.2889C243.236 2.30563 243.83 2.57098 244.507 3.27439C245.189 3.9822 245.885 5.06315 246.582 6.52845C247.974 9.45576 249.272 13.6946 250.515 18.9212C252.91 28.9946 255.049 42.4988 257.313 56.7904L257.561 58.3571C259.913 73.2018 262.412 88.7688 265.473 102.015C267.004 108.639 268.681 114.705 270.559 119.823C272.432 124.927 274.53 129.159 276.932 132.062C281.068 137.062 284.932 139.388 288.487 139.866C292.063 140.346 295.095 138.926 297.485 136.941C299.831 134.992 301.63 132.444 302.843 130.395Z" fill="#F2FAFF" stroke="#19679C" stroke-width="2"/>
</g>
</svg>
