<svg width="226" height="33" viewBox="0 0 226 33" fill="none" xmlns="http://www.w3.org/2000/svg">
<path d="M4.09444 33V17.5154H0V11.9403H4.09444V7.17832C4.09444 3.43636 6.51305 0 12.086 0C14.3424 0 16.0109 0.216315 16.0109 0.216315L15.8795 5.42259C15.8795 5.42259 14.1779 5.40603 12.321 5.40603C10.3113 5.40603 9.9893 6.33217 9.9893 7.86934V11.9403H16.0392L15.776 17.5154H9.9893V33H4.09444Z" fill="#323232"/>
<path d="M89.0392 6.48588C87.8256 7.00937 86.505 7.38613 85.1447 7.53287C86.557 6.69383 87.6146 5.36829 88.1191 3.80495C86.7938 4.59332 85.342 5.14614 83.828 5.43889C83.1953 4.76242 82.4299 4.22351 81.5798 3.85574C80.7296 3.48798 79.8128 3.29924 78.8866 3.30129C75.1388 3.30129 72.1248 6.33914 72.1248 10.0671C72.1248 10.5906 72.1882 11.114 72.2913 11.6177C66.6796 11.3242 61.6747 8.64331 58.3473 4.53864C57.741 5.57419 57.4233 6.75328 57.4272 7.95325C57.4272 10.301 58.621 12.3712 60.4413 13.5888C59.3685 13.5465 58.3209 13.2516 57.3836 12.7282V12.8114C57.3836 16.0991 59.7076 18.8237 62.805 19.4503C62.2234 19.6014 61.6251 19.6786 61.0243 19.6803C60.5841 19.6803 60.1677 19.6367 59.7473 19.5772C60.6039 22.2581 63.0984 24.2054 66.0689 24.2688C63.7449 26.0892 60.8339 27.16 57.6731 27.16C57.106 27.16 56.5825 27.1401 56.0392 27.0767C59.0374 29.0001 62.5948 30.1106 66.4258 30.1106C78.8628 30.1106 85.6682 19.8072 85.6682 10.8642C85.6682 10.5707 85.6682 10.2772 85.6484 9.98378C86.965 9.02007 88.1191 7.82634 89.0392 6.48588Z" fill="#323232"/>
<path d="M144.71 12.0967C141.832 12.0967 139.483 14.4456 139.483 17.3239C139.483 20.2022 141.832 22.5512 144.71 22.5512C147.589 22.5512 149.937 20.2022 149.937 17.3239C149.937 14.4456 147.589 12.0967 144.71 12.0967ZM160.388 17.3239C160.388 15.1593 160.408 13.0143 160.286 10.8536C160.165 8.34392 159.592 6.11657 157.757 4.28135C155.918 2.44221 153.694 1.87361 151.184 1.75205C149.02 1.63049 146.875 1.65009 144.714 1.65009C142.55 1.65009 140.405 1.63049 138.244 1.75205C135.734 1.87361 133.507 2.44614 131.672 4.28135C129.832 6.12049 129.264 8.34392 129.142 10.8536C129.021 13.0182 129.04 15.1632 129.04 17.3239C129.04 19.4846 129.021 21.6335 129.142 23.7942C129.264 26.3039 129.836 28.5313 131.672 30.3665C133.511 32.2056 135.734 32.7742 138.244 32.8958C140.408 33.0174 142.553 32.9978 144.714 32.9978C146.879 32.9978 149.024 33.0174 151.184 32.8958C153.694 32.7742 155.922 32.2017 157.757 30.3665C159.596 28.5274 160.165 26.3039 160.286 23.7942C160.412 21.6335 160.388 19.4885 160.388 17.3239ZM144.71 25.3667C140.259 25.3667 136.667 21.7747 136.667 17.3239C136.667 12.8731 140.259 9.28114 144.71 9.28114C149.161 9.28114 152.753 12.8731 152.753 17.3239C152.753 21.7747 149.161 25.3667 144.71 25.3667ZM153.082 10.8301C152.043 10.8301 151.204 9.99091 151.204 8.95174C151.204 7.91257 152.043 7.07339 153.082 7.07339C154.122 7.07339 154.961 7.91257 154.961 8.95174C154.961 9.19849 154.913 9.44289 154.818 9.67092C154.724 9.89895 154.586 10.1061 154.411 10.2806C154.237 10.4551 154.03 10.5935 153.802 10.6877C153.574 10.782 153.329 10.8304 153.082 10.8301Z" fill="#323232"/>
<path d="M200.39 11.8375C200.39 10.4107 200.639 9.06286 201.131 7.80484C201.6 6.58295 202.298 5.4615 203.186 4.50026C204.073 3.55163 205.088 2.73133 206.201 2.06308C207.344 1.372 208.58 0.850629 209.873 0.515317C211.181 0.171877 212.527 -0.00132289 213.88 7.60732e-06C215.968 7.60732e-06 217.912 0.441964 219.715 1.32221C221.494 2.1864 223.008 3.51263 224.1 5.16227C225.226 6.84024 225.785 8.73827 225.785 10.8545C225.785 12.1235 225.66 13.365 225.405 14.5791C225.155 15.7924 224.757 16.9705 224.221 18.0872C223.709 19.1682 223.041 20.1674 222.236 21.0525C221.428 21.9235 220.449 22.6189 219.361 23.0954C218.179 23.6133 216.901 23.874 215.611 23.8601C214.714 23.8601 213.819 23.6492 212.935 23.2256C212.051 22.8038 211.417 22.2243 211.035 21.4816C210.901 21.9969 210.718 22.7415 210.474 23.7153C210.239 24.6872 210.082 25.3144 210.012 25.5986C209.939 25.881 209.803 26.3523 209.605 27.0052C209.471 27.4881 209.298 27.9596 209.09 28.4154L208.459 29.6514C208.186 30.1818 207.881 30.695 207.546 31.1882C207.214 31.6686 206.803 32.2426 206.313 32.9028L206.04 33L205.858 32.8019C205.662 30.7242 205.561 29.4809 205.561 29.0701C205.561 27.8542 205.706 26.4899 205.992 24.9751C206.273 23.4622 206.717 21.5605 207.313 19.2737C207.909 16.9887 208.25 15.6445 208.341 15.2466C207.921 14.3902 207.709 13.2715 207.709 11.8961C207.709 10.7977 208.052 9.76889 208.739 8.80062C209.429 7.83602 210.3 7.35371 211.356 7.35371C212.165 7.35371 212.792 7.62146 213.241 8.15877C213.693 8.69425 213.913 9.36911 213.913 10.1925C213.913 11.0654 213.623 12.3289 213.04 13.9812C212.457 15.6353 212.167 16.8695 212.167 17.6892C212.167 18.52 212.464 19.215 213.058 19.7597C213.644 20.3046 214.42 20.5999 215.22 20.5831C215.946 20.5831 216.619 20.418 217.245 20.0861C217.86 19.7639 218.393 19.3039 218.802 18.7419C219.691 17.5211 220.326 16.1333 220.667 14.6616C220.843 13.8877 220.978 13.1523 221.063 12.461C221.153 11.7659 221.191 11.1094 221.191 10.4859C221.191 8.19912 220.465 6.41662 219.022 5.14027C217.571 3.86391 215.682 3.2294 213.359 3.2294C210.716 3.2294 208.506 4.08397 206.737 5.79862C204.965 7.50776 204.074 9.68086 204.074 12.3161C204.074 12.8974 204.162 13.4586 204.329 14.0014C204.492 14.5424 204.67 14.9733 204.863 15.2924C205.053 15.606 205.233 15.9123 205.396 16.1947C205.561 16.4771 205.648 16.6788 205.648 16.7998C205.648 17.1703 205.55 17.6526 205.354 18.2486C205.151 18.8446 204.91 19.1417 204.621 19.1417C204.593 19.1417 204.479 19.1215 204.281 19.0793C203.595 18.8745 202.976 18.4917 202.486 17.9698C201.966 17.4289 201.556 16.7925 201.277 16.0956C201 15.4013 200.784 14.6839 200.632 13.9519C200.468 13.2592 200.386 12.5494 200.39 11.8375Z" fill="#323232"/>
</svg>
