<svg width="14" height="12" viewBox="0 0 14 12" fill="none" xmlns="http://www.w3.org/2000/svg">
<path fill-rule="evenodd" clip-rule="evenodd" d="M2.33337 0.666992H8.3868C8.97064 0.666992 9.52534 0.922118 9.90531 1.36541L13.5062 5.56646C13.7202 5.81612 13.7202 6.18453 13.5062 6.43419L9.90531 10.6352C9.52534 11.0785 8.97064 11.3337 8.3868 11.3337H2.33337C1.2288 11.3337 0.333374 10.4382 0.333374 9.33366V2.66699C0.333374 1.56242 1.2288 0.666992 2.33337 0.666992ZM12.122 6.00033L8.89297 2.23313C8.76631 2.08537 8.58141 2.00033 8.38679 2.00033H2.33337C1.96518 2.00033 1.66671 2.2988 1.66671 2.66699V9.33366C1.66671 9.70185 1.96518 10.0003 2.33337 10.0003H8.38679C8.58141 10.0003 8.76631 9.91528 8.89297 9.76752L12.122 6.00033Z" fill="#25282B"/>
</svg>
