<svg width="16" height="16" viewBox="0 0 16 16" fill="none" xmlns="http://www.w3.org/2000/svg">
<path fill-rule="evenodd" clip-rule="evenodd" d="M8.00098 0C12.4193 0 16.001 3.582 16.001 8.00059C16.001 12.365 12.5032 15.9222 8.1461 15.9999C7.7445 16.007 7.41314 15.6873 7.40598 15.2857C7.39883 14.8841 7.71858 14.5527 8.12018 14.5456C11.6845 14.482 14.5464 11.5715 14.5464 8.00059C14.5464 4.38529 11.6159 1.45455 8.00098 1.45455C4.38603 1.45455 1.45552 4.38529 1.45552 8.00059C1.45552 8.40225 1.12991 8.72786 0.728249 8.72786C0.326588 8.72786 0.000976562 8.40225 0.000976562 8.00059C0.000976562 3.582 3.58269 0 8.00098 0Z" fill="#52575C"/>
</svg>
