<svg width="16" height="14" viewBox="0 0 16 14" fill="none" xmlns="http://www.w3.org/2000/svg">
<path fill-rule="evenodd" clip-rule="evenodd" d="M13.4081 0.181641H2.59192C1.90122 0.181641 1.53872 0.244275 1.15747 0.426707C0.793467 0.600885 0.498682 0.86464 0.297294 1.20156C0.0772246 1.56974 0 1.92755 0 2.57728V11.6042C0 12.2539 0.0772246 12.6117 0.297294 12.9799C0.498682 13.3168 0.793467 13.5806 1.15747 13.7548C1.53872 13.9372 1.90122 13.9998 2.59192 13.9998H13.4081C14.0988 13.9998 14.4613 13.9372 14.8425 13.7548C15.2065 13.5806 15.5013 13.3168 15.7027 12.9799C15.9228 12.6117 16 12.2539 16 11.6042V2.57728C16 1.92755 15.9228 1.56974 15.7027 1.20156C15.5013 0.86464 15.2065 0.600885 14.8425 0.426707C14.4613 0.244275 14.0988 0.181641 13.4081 0.181641ZM2.46588 1.63705L13.4081 1.63636C13.8997 1.63636 14.0572 1.66358 14.2147 1.73895C14.3248 1.79162 14.402 1.86076 14.4542 1.94801C14.5155 2.0505 14.5404 2.1478 14.5447 2.46374L14.5455 11.6044C14.5455 12.0125 14.5223 12.1199 14.4542 12.2338C14.402 12.3211 14.3248 12.3902 14.2147 12.4429C14.0715 12.5114 13.9283 12.5401 13.5341 12.5448L2.59192 12.5455C2.10033 12.5455 1.94282 12.5182 1.7853 12.4429C1.67523 12.3902 1.59796 12.3211 1.54581 12.2338C1.48455 12.1313 1.45963 12.034 1.45526 11.7181L1.45455 2.57746C1.45455 2.16936 1.47774 2.06189 1.54581 1.94801C1.59796 1.86076 1.67523 1.79162 1.7853 1.73895C1.9285 1.67043 2.07169 1.64171 2.46588 1.63705Z" fill="black"/>
</svg>
