<svg width="16" height="13" viewBox="0 0 16 13" fill="none" xmlns="http://www.w3.org/2000/svg">
<path fill-rule="evenodd" clip-rule="evenodd" d="M9.20679 0.00285496C7.54909 0.0542667 6.58402 0.800645 5.82981 2.29107L5.7607 2.43061L5.65305 2.39034C5.41398 2.30868 5.1616 2.26569 4.9028 2.26569L4.77166 2.26932C3.5131 2.33927 2.52486 3.41071 2.40259 4.74058L2.39513 4.85078L2.25946 4.9062C0.916427 5.48827 0 6.93385 0 8.57806C0 10.7381 1.5746 12.5217 3.563 12.5217H12.4365C14.425 12.5217 16 10.738 16 8.57806L15.9968 8.40938C15.9367 6.84186 15.0438 5.47438 13.7474 4.90911L13.7127 4.89461L13.7084 4.75605C13.5797 2.04261 11.981 0 9.39385 0L9.20679 0.00285496ZM9.39385 1.3913C11.2135 1.3913 12.3255 2.91489 12.3255 5.11367C12.3255 5.18843 12.3228 5.2672 12.3176 5.35321C12.2969 5.69244 12.5244 5.99696 12.8555 6.07339C13.8529 6.30358 14.6087 7.33982 14.6087 8.57806C14.6087 10.0055 13.6154 11.1304 12.4365 11.1304H3.563C2.38427 11.1304 1.3913 10.0056 1.3913 8.57806C1.3913 7.29874 2.19635 6.24126 3.23519 6.05501C3.57993 5.99321 3.82062 5.68676 3.80767 5.34476L3.80011 5.26531C3.78753 5.18284 3.78115 5.10105 3.78115 5.01917C3.78115 4.24884 4.30381 3.65699 4.9028 3.65699C5.11872 3.65699 5.32671 3.73208 5.50676 3.87407L5.59437 3.9506C5.95151 4.29485 6.54389 4.16538 6.72486 3.70353C7.38585 2.0166 8.0068 1.3913 9.39385 1.3913Z" fill="#25282B"/>
</svg>
