<svg width="820" height="625" viewBox="0 0 820 625" fill="none" xmlns="http://www.w3.org/2000/svg">
<path fill-rule="evenodd" clip-rule="evenodd" d="M657.794 456.418C657.254 455.151 655.62 451.296 580.903 439.162C556.793 435.243 512.596 428.549 453.697 421.688C549.621 417.458 610.953 379.178 624.432 348.845C629.04 338.473 627.793 329.314 620.923 323.055C609.755 312.879 585.072 311.742 551.424 319.858C531.365 324.695 508.231 332.794 482.735 343.838C508.007 329.319 529.574 316.744 546.691 306.542C590.147 280.634 590.135 279.179 590.119 277.336C590.112 276.475 589.579 275.59 588.823 275.184C587.597 274.519 585.054 273.113 520.299 309.831C501.24 320.641 468.454 339.582 429.309 363.63C479.03 320.681 501.181 279.032 497.33 260.446C496.253 255.241 493.057 251.95 488.336 251.176C467.544 247.769 431.084 288.349 397.355 338.709C427.506 264.968 417.42 207.212 391.295 181.463C377.773 168.137 360.771 165.066 346.933 173.448C324.813 186.844 309.782 228.312 323.283 305.761C307.531 259.287 289.943 214.814 280.022 213.757C278.179 213.545 276.583 214.493 275.579 216.3C268.086 229.81 288.147 317.765 327.245 380.297C271.579 338.202 163.109 337.525 127.943 352.832C117.374 357.432 115.828 362.642 116.393 366.2C118.55 379.815 157.372 392.315 227.447 402.377C226.728 402.375 226.018 402.375 225.304 402.375C90.0959 402.375 19.1944 442.526 5.35164 472.463C0.31233 483.363 1.95517 493.669 9.98083 501.485C24.5755 515.698 58.3634 519.959 102.671 513.178C136.763 507.962 176.502 496.448 220.038 479.289C161.396 510.557 100.061 546.418 100.674 559.338C100.766 561.287 101.987 562.851 104.028 563.634C121.378 570.29 229.721 525.314 308.035 461.068C258.566 525.39 242.06 595.733 251.351 616.358C253.716 621.61 257.381 622.518 259.632 622.518C259.797 622.518 259.955 622.514 260.101 622.504C265.614 622.195 282.973 614.376 312.832 541.738C302.369 580.433 296.293 611.481 302.027 616.351C303.354 617.481 305.115 617.601 306.864 616.705C320.118 609.891 353.877 526.029 358.348 458.081C374.437 523.182 423.584 599.227 438.591 603.91C441.518 604.819 443.121 603.332 443.673 602.653C449.961 594.959 430.039 550.651 405.307 502.686C427.855 532.3 453.117 555.209 479.895 570.106C512.363 588.162 546.865 593.985 574.555 586.067C601.362 578.406 617.239 559.482 615.992 536.682C614.792 514.747 597.591 492.152 567.56 473.056C546.436 459.624 519.693 448.061 487.614 438.454C530.776 445.418 567.64 450.961 596.367 454.794C654.656 462.573 656.332 460.45 657.442 459.048C658.032 458.303 658.164 457.295 657.794 456.418Z" fill="url(#paint0_linear)"/>
<path d="M657.794 456.418C657.254 455.151 655.62 451.296 580.903 439.162C556.793 435.243 512.596 428.549 453.697 421.688C549.621 417.458 610.953 379.178 624.432 348.845C629.04 338.473 627.793 329.314 620.923 323.055C609.755 312.879 585.072 311.742 551.424 319.858C531.365 324.695 508.231 332.794 482.735 343.838C508.007 329.319 529.574 316.744 546.691 306.542C590.147 280.634 590.135 279.179 590.119 277.336C590.112 276.475 589.579 275.59 588.823 275.184C587.597 274.519 585.054 273.113 520.299 309.831C501.24 320.641 468.454 339.582 429.309 363.63C479.03 320.681 501.181 279.032 497.33 260.446C496.253 255.241 493.057 251.95 488.336 251.176C467.544 247.769 431.084 288.349 397.355 338.709C427.506 264.968 417.42 207.212 391.295 181.463C377.773 168.137 360.771 165.066 346.933 173.448C324.813 186.844 309.782 228.312 323.283 305.761C307.531 259.287 289.943 214.814 280.022 213.757C278.179 213.545 276.583 214.493 275.579 216.3C268.086 229.81 288.147 317.765 327.245 380.297C271.579 338.202 163.109 337.525 127.943 352.832C117.374 357.432 115.828 362.642 116.393 366.2C118.55 379.815 157.372 392.315 227.447 402.377C226.728 402.375 226.018 402.375 225.304 402.375C90.0959 402.375 19.1944 442.526 5.35164 472.463C0.31233 483.363 1.95517 493.669 9.98083 501.485C24.5755 515.698 58.3634 519.959 102.671 513.178C136.763 507.962 176.502 496.448 220.038 479.289C161.396 510.557 100.061 546.418 100.674 559.338C100.766 561.287 101.987 562.851 104.028 563.634C121.378 570.29 229.721 525.314 308.035 461.068C258.566 525.39 242.06 595.733 251.351 616.358C253.716 621.61 257.381 622.518 259.632 622.518C259.797 622.518 259.955 622.514 260.101 622.504C265.614 622.195 282.973 614.376 312.832 541.738C302.369 580.433 296.293 611.481 302.027 616.351C303.354 617.481 305.115 617.601 306.864 616.705C320.118 609.891 353.877 526.029 358.348 458.081C374.437 523.182 423.584 599.227 438.591 603.91C441.518 604.819 443.121 603.332 443.673 602.653C449.961 594.959 430.039 550.651 405.307 502.686C427.855 532.3 453.117 555.209 479.895 570.106C512.363 588.162 546.865 593.985 574.555 586.067C601.362 578.406 617.239 559.482 615.992 536.682C614.792 514.747 597.591 492.152 567.56 473.056C546.436 459.624 519.693 448.061 487.614 438.454C530.776 445.418 567.64 450.961 596.367 454.794C654.656 462.573 656.332 460.45 657.442 459.048C658.032 458.303 658.164 457.295 657.794 456.418" stroke="url(#paint1_linear)" stroke-width="4"/>
<path d="M536.125 47.3076H441.5V141.923H536.125V47.3076Z" fill="#111747"/>
<path d="M441.5 47.3076H346.875V141.923H441.5V47.3076Z" fill="#111747"/>
<path fill-rule="evenodd" clip-rule="evenodd" d="M204.938 236.538H252.25V331.154H204.938C178.808 331.154 157.625 309.973 157.625 283.846C157.625 257.719 178.808 236.538 204.938 236.538Z" fill="#111747"/>
<path d="M441.5 236.538H346.875V331.154H441.5V236.538Z" fill="#111747"/>
<path d="M441.5 331.154H346.875V425.769H441.5V331.154Z" fill="#FFE01B"/>
<path d="M630.75 236.538H536.125V331.154H630.75V236.538Z" fill="#06818E"/>
<path d="M536.125 236.538H441.5V331.154H536.125V236.538Z" fill="#06818E"/>
<path d="M441.5 520.385H346.875V615H441.5V520.385Z" fill="#FFC641"/>
<path d="M346.875 236.538H252.25V331.154H346.875V236.538Z" fill="#111747"/>
<path d="M441.5 425.769H346.875V520.385H441.5V425.769Z" fill="white"/>
<path d="M441.5 141.923H346.875V236.538H441.5V141.923Z" fill="#FFEBEB"/>
<path fill-rule="evenodd" clip-rule="evenodd" d="M441.5 236.538H488.812C514.942 236.538 536.125 257.719 536.125 283.846C536.125 309.973 514.942 331.154 488.812 331.154H441.5V236.538Z" fill="#111747"/>
<path fill-rule="evenodd" clip-rule="evenodd" d="M441.5 520.385H488.812C514.942 520.385 536.125 541.565 536.125 567.692C536.125 593.82 514.942 615 488.812 615H441.5V520.385Z" fill="#FE5E33"/>
<path fill-rule="evenodd" clip-rule="evenodd" d="M441.5 425.769H488.812C514.942 425.769 536.125 446.95 536.125 473.077C536.125 499.204 514.942 520.385 488.812 520.385H441.5V425.769Z" fill="#16A3B2"/>
<path fill-rule="evenodd" clip-rule="evenodd" d="M394.188 47.3076C420.317 47.3076 441.5 68.488 441.5 94.6153V141.923H346.875V94.6153C346.875 68.488 368.058 47.3076 394.188 47.3076Z" fill="#FFEBEB"/>
<path fill-rule="evenodd" clip-rule="evenodd" d="M678.062 141.923C704.192 141.923 725.375 163.103 725.375 189.231V236.538H630.75V189.231C630.75 163.103 651.933 141.923 678.062 141.923Z" fill="#FE5E33"/>
<path fill-rule="evenodd" clip-rule="evenodd" d="M488.812 141.923C514.942 141.923 536.125 163.103 536.125 189.231V236.538H441.5V189.231C441.5 163.103 462.683 141.923 488.812 141.923Z" fill="#ED3034"/>
<path fill-rule="evenodd" clip-rule="evenodd" d="M299.562 141.923C325.692 141.923 346.875 163.103 346.875 189.231V236.538H299.562C273.433 236.538 252.25 215.358 252.25 189.231C252.25 163.103 273.433 141.923 299.562 141.923Z" fill="#B3BCF5"/>
<path fill-rule="evenodd" clip-rule="evenodd" d="M299.562 520.385C325.692 520.385 346.875 541.565 346.875 567.692V615H252.25V567.692C252.25 541.565 273.433 520.385 299.562 520.385Z" fill="#FF87A2"/>
<path d="M488.812 0H394.188V94.6154H488.812V0Z" fill="#FFEBEB"/>
<path fill-rule="evenodd" clip-rule="evenodd" d="M346.875 236.538H441.5C441.5 262.666 420.317 283.846 394.188 283.846C368.058 283.846 346.875 262.666 346.875 236.538Z" fill="#06818E"/>
<path fill-rule="evenodd" clip-rule="evenodd" d="M536.125 141.923H630.75C630.75 168.05 609.567 189.231 583.438 189.231C557.308 189.231 536.125 168.05 536.125 141.923Z" fill="#06818E"/>
<path fill-rule="evenodd" clip-rule="evenodd" d="M630.75 189.231H725.375C725.375 215.358 704.192 236.538 678.062 236.538C651.933 236.538 630.75 215.358 630.75 189.231Z" fill="#FFC641"/>
<path fill-rule="evenodd" clip-rule="evenodd" d="M488.812 331.154C514.942 331.154 536.125 352.334 536.125 378.462C536.125 404.589 514.942 425.769 488.812 425.769H441.5V378.462C441.5 352.334 462.683 331.154 488.812 331.154Z" fill="#FFEBEB"/>
<path fill-rule="evenodd" clip-rule="evenodd" d="M204.938 331.154H252.25V378.462C252.25 404.589 231.067 425.769 204.938 425.769C178.808 425.769 157.625 404.589 157.625 378.462C157.625 352.334 178.808 331.154 204.938 331.154Z" fill="#FFEBEB"/>
<path fill-rule="evenodd" clip-rule="evenodd" d="M441.5 425.769H346.875C346.875 399.642 368.058 378.461 394.188 378.461C420.317 378.461 441.5 399.642 441.5 425.769Z" fill="#000639"/>
<path fill-rule="evenodd" clip-rule="evenodd" d="M820 236.538H725.375C725.375 210.411 746.558 189.231 772.688 189.231C798.817 189.231 820 210.411 820 236.538Z" fill="#16A3B2"/>
<path fill-rule="evenodd" clip-rule="evenodd" d="M346.875 331.154H252.25C252.25 305.026 273.433 283.846 299.562 283.846C325.692 283.846 346.875 305.026 346.875 331.154Z" fill="#ED3034"/>
<path d="M725.375 425.769H630.75V520.385H725.375V425.769Z" fill="white"/>
<path d="M725.375 520.385H630.75V615H725.375V520.385Z" fill="#FE5E33"/>
<path d="M346.875 331.154H252.25V425.769H346.875V331.154Z" fill="#FFC641"/>
<path fill-rule="evenodd" clip-rule="evenodd" d="M252.25 425.769H346.875V473.077C346.875 499.204 325.692 520.385 299.562 520.385C273.433 520.385 252.25 499.204 252.25 473.077V425.769Z" fill="#FFC641"/>
<path fill-rule="evenodd" clip-rule="evenodd" d="M441.5 0C441.5 26.1273 420.317 47.3077 394.188 47.3077C394.188 21.1804 415.37 0 441.5 0ZM346.875 94.6154C346.875 68.4881 368.058 47.3077 394.188 47.3077C394.188 73.435 373.005 94.6154 346.875 94.6154ZM394.188 47.3077C368.058 47.3077 346.875 26.1273 346.875 0C373.005 0 394.188 21.1804 394.188 47.3077ZM394.188 47.3077C420.317 47.3077 441.5 68.4881 441.5 94.6154C415.37 94.6154 394.188 73.435 394.188 47.3077Z" fill="#000639"/>
<path d="M725.375 236.538H630.75V331.154H725.375V236.538Z" fill="#FE5E33"/>
<path d="M157.625 520.385H63V615H157.625V520.385Z" fill="#111747"/>
<path d="M725.375 47.3076H630.75V141.923H725.375V47.3076Z" fill="#FE5E33"/>
<path d="M157.625 141.923H63V236.538H157.625V141.923Z" fill="#FFEBEB"/>
<path d="M820 236.538H725.375V331.154H820V236.538Z" fill="#16A3B2"/>
<path d="M630.75 47.3076H536.125V141.923H630.75V47.3076Z" fill="#06818E"/>
<path d="M157.625 331.154H63V425.769H157.625V331.154Z" fill="#ED3034"/>
<path d="M725.375 331.154H630.75V425.769H725.375V331.154Z" fill="#FE5E33"/>
<path fill-rule="evenodd" clip-rule="evenodd" d="M630.75 331.154H678.062C704.192 331.154 725.375 352.334 725.375 378.462C725.375 404.589 704.192 425.769 678.062 425.769C651.933 425.769 630.75 404.589 630.75 378.462V331.154Z" fill="#111747"/>
<path fill-rule="evenodd" clip-rule="evenodd" d="M630.75 331.154C604.62 331.154 583.438 309.973 583.438 283.846C583.438 257.719 604.62 236.538 630.75 236.538V331.154Z" fill="#16A3B2"/>
<path fill-rule="evenodd" clip-rule="evenodd" d="M630.75 331.154V236.538C656.88 236.538 678.062 257.719 678.062 283.846C678.062 309.973 656.88 331.154 630.75 331.154Z" fill="#16A3B2"/>
<path fill-rule="evenodd" clip-rule="evenodd" d="M725.375 425.769H772.688C798.817 425.769 820 446.95 820 473.077C820 499.204 798.817 520.385 772.688 520.385H725.375V425.769Z" fill="#16A3B2"/>
<path fill-rule="evenodd" clip-rule="evenodd" d="M725.375 520.385C699.245 520.385 678.062 499.204 678.062 473.077C678.062 446.95 699.245 425.769 725.375 425.769V520.385Z" fill="#16A3B2"/>
<path d="M157.625 236.538H63V331.154H157.625V236.538Z" fill="#B3BCF5"/>
<path d="M630.75 425.769H536.125V520.385H630.75V425.769Z" fill="#FFC641"/>
<path d="M820 331.154H725.375V425.769H820V331.154Z" fill="#FF87A2"/>
<path fill-rule="evenodd" clip-rule="evenodd" d="M583.438 331.154H630.75V425.769H583.438C557.308 425.769 536.125 404.589 536.125 378.462C536.125 352.334 557.308 331.154 583.438 331.154Z" fill="#FF87A2"/>
<path fill-rule="evenodd" clip-rule="evenodd" d="M157.625 236.538H252.25C252.25 262.666 231.067 283.846 204.938 283.846C178.808 283.846 157.625 262.666 157.625 236.538Z" fill="#B3BCF5"/>
<path fill-rule="evenodd" clip-rule="evenodd" d="M441.5 236.538H536.125C536.125 262.666 514.942 283.846 488.812 283.846C462.683 283.846 441.5 262.666 441.5 236.538Z" fill="#ED3034"/>
<path d="M252.25 141.923H157.625V236.538H252.25V141.923Z" fill="#B3BCF5"/>
<path fill-rule="evenodd" clip-rule="evenodd" d="M252.25 141.923H157.625C157.625 115.796 178.808 94.6152 204.938 94.6152C231.067 94.6152 252.25 115.796 252.25 141.923Z" fill="#B3BCF5"/>
<path fill-rule="evenodd" clip-rule="evenodd" d="M252.25 47.3076C252.25 73.4349 231.067 94.6153 204.938 94.6153C204.938 68.488 226.12 47.3076 252.25 47.3076Z" fill="#000639"/>
<path fill-rule="evenodd" clip-rule="evenodd" d="M157.625 141.923C157.625 115.796 178.808 94.6152 204.938 94.6152C204.938 120.743 183.755 141.923 157.625 141.923Z" fill="#111747"/>
<path fill-rule="evenodd" clip-rule="evenodd" d="M228.594 230.188C214.452 222.009 204.938 206.72 204.938 189.21C204.938 171.699 214.452 156.411 228.594 148.231C242.735 156.411 252.25 171.699 252.25 189.21C252.25 206.72 242.735 222.009 228.594 230.188Z" fill="white"/>
<path fill-rule="evenodd" clip-rule="evenodd" d="M441.5 141.923C441.5 168.05 420.317 189.231 394.188 189.231C394.188 163.103 415.37 141.923 441.5 141.923Z" fill="#111747"/>
<path fill-rule="evenodd" clip-rule="evenodd" d="M536.125 236.538C562.255 236.538 583.438 257.719 583.438 283.846C557.308 283.846 536.125 262.666 536.125 236.538Z" fill="#16A3B2"/>
<path fill-rule="evenodd" clip-rule="evenodd" d="M725.375 331.154C725.375 357.281 704.192 378.462 678.062 378.462C678.062 352.334 699.245 331.154 725.375 331.154Z" fill="#FFC641"/>
<path fill-rule="evenodd" clip-rule="evenodd" d="M157.625 141.923C157.625 168.05 136.442 189.231 110.312 189.231C110.312 163.103 131.495 141.923 157.625 141.923Z" fill="#FFC641"/>
<path fill-rule="evenodd" clip-rule="evenodd" d="M157.625 425.769V331.154C183.755 331.154 204.938 352.334 204.938 378.462C204.938 404.589 183.755 425.769 157.625 425.769Z" fill="#ED3034"/>
<path fill-rule="evenodd" clip-rule="evenodd" d="M63 425.769C63 399.642 84.1825 378.461 110.312 378.461C110.312 404.589 89.13 425.769 63 425.769Z" fill="#16A3B2"/>
<path d="M157.625 47.3076H63V141.923H157.625V47.3076Z" fill="#000639"/>
<path fill-rule="evenodd" clip-rule="evenodd" d="M624.399 165.577C616.219 179.717 600.929 189.231 583.416 189.231C565.904 189.231 550.614 179.717 542.433 165.577C550.614 151.437 565.904 141.923 583.416 141.923C600.929 141.923 616.219 151.437 624.399 165.577Z" fill="#16A3B2"/>
<path fill-rule="evenodd" clip-rule="evenodd" d="M63 236.538C63 210.411 84.1825 189.231 110.312 189.231C110.312 215.358 89.13 236.538 63 236.538Z" fill="#06818E"/>
<path fill-rule="evenodd" clip-rule="evenodd" d="M346.875 331.154C346.875 305.026 368.058 283.846 394.188 283.846C394.188 309.973 373.005 331.154 346.875 331.154Z" fill="white"/>
<path fill-rule="evenodd" clip-rule="evenodd" d="M133.969 514.034C119.827 505.855 110.312 490.566 110.312 473.056C110.312 455.545 119.827 440.257 133.969 432.077C148.11 440.257 157.625 455.545 157.625 473.056C157.625 490.566 148.11 505.855 133.969 514.034ZM86.6562 514.034C72.5145 505.855 63 490.566 63 473.056C63 455.545 72.5145 440.257 86.6562 432.077C100.798 440.257 110.312 455.545 110.312 473.056C110.312 490.566 100.798 505.855 86.6562 514.034Z" fill="#16A3B2"/>
<path fill-rule="evenodd" clip-rule="evenodd" d="M512.469 514.034C498.327 505.855 488.812 490.566 488.812 473.056C488.812 455.545 498.327 440.257 512.469 432.077C526.61 440.257 536.125 455.545 536.125 473.056C536.125 490.566 526.61 505.855 512.469 514.034Z" fill="#111747"/>
<path d="M820 236.538H725.375V331.154H820V236.538Z" fill="#111747"/>
<path d="M346.875 425.769H252.25V520.385H346.875V425.769Z" fill="#16A3B2"/>
<path d="M299.562 378.461H204.938V473.077H299.562V378.461Z" fill="white"/>
<path d="M346.875 331.154H252.25V425.769H346.875V331.154Z" fill="#ED3034"/>
<path fill-rule="evenodd" clip-rule="evenodd" d="M772.688 260.192C785.752 260.192 796.344 270.783 796.344 283.846C796.344 296.91 785.752 307.5 772.688 307.5C759.623 307.5 749.031 296.91 749.031 283.846C749.031 270.783 759.623 260.192 772.688 260.192Z" fill="#FFC641"/>
<path fill-rule="evenodd" clip-rule="evenodd" d="M299.562 260.192C312.627 260.192 323.219 270.783 323.219 283.846C323.219 296.91 312.627 307.5 299.562 307.5C286.498 307.5 275.906 296.91 275.906 283.846C275.906 270.783 286.498 260.192 299.562 260.192Z" fill="#FFE01B"/>
<path fill-rule="evenodd" clip-rule="evenodd" d="M110.312 260.192C123.377 260.192 133.969 270.783 133.969 283.846C133.969 296.91 123.377 307.5 110.312 307.5C97.2475 307.5 86.6562 296.91 86.6562 283.846C86.6562 270.783 97.2475 260.192 110.312 260.192Z" fill="#111747"/>
<path fill-rule="evenodd" clip-rule="evenodd" d="M394.188 449.423C407.252 449.423 417.844 460.013 417.844 473.077C417.844 486.141 407.252 496.731 394.188 496.731C381.123 496.731 370.531 486.141 370.531 473.077C370.531 460.013 381.123 449.423 394.188 449.423Z" fill="#FE5E33"/>
<path fill-rule="evenodd" clip-rule="evenodd" d="M488.812 354.808C501.877 354.808 512.469 365.398 512.469 378.461C512.469 391.525 501.877 402.115 488.812 402.115C475.748 402.115 465.156 391.525 465.156 378.461C465.156 365.398 475.748 354.808 488.812 354.808Z" fill="#FE5E33"/>
<path fill-rule="evenodd" clip-rule="evenodd" d="M204.938 449.423C218.002 449.423 228.594 460.013 228.594 473.077C228.594 486.141 218.002 496.731 204.938 496.731C191.873 496.731 181.281 486.141 181.281 473.077C181.281 460.013 191.873 449.423 204.938 449.423Z" fill="#16A3B2"/>
<path fill-rule="evenodd" clip-rule="evenodd" d="M583.438 354.808C596.502 354.808 607.094 365.398 607.094 378.461C607.094 391.525 596.502 402.115 583.438 402.115C570.373 402.115 559.781 391.525 559.781 378.461C559.781 365.398 570.373 354.808 583.438 354.808Z" fill="#16A3B2"/>
<path fill-rule="evenodd" clip-rule="evenodd" d="M110.312 449.423C123.377 449.423 133.969 460.013 133.969 473.077C133.969 486.141 123.377 496.731 110.312 496.731C97.2475 496.731 86.6562 486.141 86.6562 473.077C86.6562 460.013 97.2475 449.423 110.312 449.423Z" fill="#FE5E33"/>
<path fill-rule="evenodd" clip-rule="evenodd" d="M488.812 165.577C501.877 165.577 512.469 176.167 512.469 189.231C512.469 202.294 501.877 212.885 488.812 212.885C475.748 212.885 465.156 202.294 465.156 189.231C465.156 176.167 475.748 165.577 488.812 165.577Z" fill="#FFC641"/>
<path fill-rule="evenodd" clip-rule="evenodd" d="M204.938 354.808C218.002 354.808 228.594 365.398 228.594 378.461C228.594 391.525 218.002 402.115 204.938 402.115C191.873 402.115 181.281 391.525 181.281 378.461C181.281 365.398 191.873 354.808 204.938 354.808Z" fill="#111747"/>
<path fill-rule="evenodd" clip-rule="evenodd" d="M394.188 212.885C407.252 212.885 417.844 223.475 417.844 236.539C417.844 249.602 407.252 260.192 394.188 260.192C381.123 260.192 370.531 249.602 370.531 236.539C370.531 223.475 381.123 212.885 394.188 212.885Z" fill="#ED3034"/>
<path fill-rule="evenodd" clip-rule="evenodd" d="M772.688 449.423C785.752 449.423 796.344 460.013 796.344 473.077C796.344 486.141 785.752 496.731 772.688 496.731C759.623 496.731 749.031 486.141 749.031 473.077C749.031 460.013 759.623 449.423 772.688 449.423Z" fill="#FE5E33"/>
<path fill-rule="evenodd" clip-rule="evenodd" d="M725.375 94.6152C725.375 120.743 704.192 141.923 678.062 141.923C678.062 115.796 699.245 94.6152 725.375 94.6152ZM630.75 189.231C630.75 163.103 651.933 141.923 678.062 141.923C678.062 168.05 656.88 189.231 630.75 189.231ZM678.062 141.923C651.933 141.923 630.75 120.743 630.75 94.6152C656.88 94.6152 678.062 115.796 678.062 141.923ZM678.062 141.923C704.192 141.923 725.375 163.103 725.375 189.231C699.245 189.231 678.062 168.05 678.062 141.923Z" fill="#111747"/>
<path fill-rule="evenodd" clip-rule="evenodd" d="M583.438 567.692C583.438 541.565 604.62 520.385 630.75 520.385C630.75 546.512 609.567 567.692 583.438 567.692Z" fill="#111747"/>
<path fill-rule="evenodd" clip-rule="evenodd" d="M252.25 47.3076H346.875V94.6153C346.875 120.743 325.692 141.923 299.562 141.923C273.433 141.923 252.25 120.743 252.25 94.6153V47.3076Z" fill="#000639"/>
<path fill-rule="evenodd" clip-rule="evenodd" d="M299.562 94.6153C299.562 68.488 320.745 47.3076 346.875 47.3076C346.875 73.4349 325.692 94.6153 299.562 94.6153Z" fill="#ED3034"/>
<path d="M252.25 520.385H157.625V615H252.25V520.385Z" fill="#111747"/>
<path fill-rule="evenodd" clip-rule="evenodd" d="M252.25 520.385H157.625C157.625 494.257 178.808 473.077 204.938 473.077C231.067 473.077 252.25 494.257 252.25 520.385Z" fill="#FE5E33"/>
<path fill-rule="evenodd" clip-rule="evenodd" d="M772.688 47.3076H820V141.923H772.688C746.558 141.923 725.375 120.743 725.375 94.6153C725.375 68.488 746.558 47.3076 772.688 47.3076Z" fill="#111747"/>
<path fill-rule="evenodd" clip-rule="evenodd" d="M772.688 70.9617C785.752 70.9617 796.344 81.5519 796.344 94.6155C796.344 107.679 785.752 118.269 772.688 118.269C759.623 118.269 749.031 107.679 749.031 94.6155C749.031 81.5519 759.623 70.9617 772.688 70.9617Z" fill="white"/>
<path fill-rule="evenodd" clip-rule="evenodd" d="M110.312 567.692C110.312 541.565 131.495 520.385 157.625 520.385C157.625 546.512 136.442 567.692 110.312 567.692Z" fill="#16A3B2"/>
<path fill-rule="evenodd" clip-rule="evenodd" d="M820 520.385C820 546.512 798.817 567.692 772.688 567.692C772.688 541.565 793.87 520.385 820 520.385ZM725.375 615C725.375 588.873 746.558 567.692 772.688 567.692C772.688 593.82 751.505 615 725.375 615ZM772.688 567.692C746.558 567.692 725.375 546.512 725.375 520.385C751.505 520.385 772.688 541.565 772.688 567.692ZM772.688 567.692C798.817 567.692 820 588.873 820 615C793.87 615 772.688 593.82 772.688 567.692Z" fill="#16A3B2"/>
<path fill-rule="evenodd" clip-rule="evenodd" d="M813.649 165.577C805.469 179.717 790.179 189.231 772.666 189.231C755.154 189.231 739.864 179.717 731.683 165.577C739.864 151.437 755.154 141.923 772.666 141.923C790.179 141.923 805.469 151.437 813.649 165.577Z" fill="#FFC641"/>
<path fill-rule="evenodd" clip-rule="evenodd" d="M488.812 378.461C488.812 404.589 467.63 425.769 441.5 425.769C441.5 399.642 462.683 378.461 488.812 378.461Z" fill="#06818E"/>
<path fill-rule="evenodd" clip-rule="evenodd" d="M157.625 0C157.625 26.1273 136.442 47.3077 110.312 47.3077C110.312 21.1804 131.495 0 157.625 0ZM63 94.6154C63 68.4881 84.1825 47.3077 110.312 47.3077C110.312 73.435 89.13 94.6154 63 94.6154ZM110.312 47.3077C84.1825 47.3077 63 26.1273 63 0C89.13 0 110.312 21.1804 110.312 47.3077ZM110.312 47.3077C136.442 47.3077 157.625 68.4881 157.625 94.6154C131.495 94.6154 110.312 73.435 110.312 47.3077Z" fill="#111747"/>
<path fill-rule="evenodd" clip-rule="evenodd" d="M346.875 378.461C346.875 404.589 325.692 425.769 299.562 425.769C299.562 399.642 320.745 378.461 346.875 378.461ZM252.25 473.077C252.25 446.95 273.433 425.769 299.562 425.769C299.562 451.896 278.38 473.077 252.25 473.077ZM299.562 425.769C273.433 425.769 252.25 404.589 252.25 378.461C278.38 378.461 299.562 399.642 299.562 425.769ZM299.562 425.769C325.692 425.769 346.875 446.95 346.875 473.077C320.745 473.077 299.562 451.896 299.562 425.769Z" fill="#16A3B2"/>
<defs>
<linearGradient id="paint0_linear" x1="2.48511" y1="395.652" x2="658" y2="395.652" gradientUnits="userSpaceOnUse">
<stop stop-color="#0575E6"/>
<stop offset="1" stop-color="#021B79"/>
</linearGradient>
<linearGradient id="paint1_linear" x1="2.48511" y1="395.652" x2="658" y2="395.652" gradientUnits="userSpaceOnUse">
<stop stop-color="#0575E6"/>
<stop offset="1" stop-color="#021B79"/>
</linearGradient>
</defs>
</svg>
