<svg width="16" height="19" viewBox="0 0 16 19" fill="none" xmlns="http://www.w3.org/2000/svg">
<path d="M15.7567 17.0926L11.8125 12.5366C12.8266 11.1977 13.3823 9.51309 13.3823 7.75932C13.3823 3.66183 10.3806 0.328125 6.69113 0.328125C3.0017 0.328125 0 3.66183 0 7.75932C0 11.8568 3.0017 15.1905 6.69113 15.1905C8.07619 15.1905 9.39609 14.7266 10.5246 13.8458L14.4988 18.4363C14.6649 18.6279 14.8883 18.7336 15.1278 18.7336C15.3544 18.7336 15.5694 18.6376 15.7326 18.4632C16.0794 18.0926 16.0904 17.478 15.7567 17.0926ZM6.69113 2.2667C9.4182 2.2667 11.6367 4.73063 11.6367 7.75932C11.6367 10.788 9.4182 13.2519 6.69113 13.2519C3.96406 13.2519 1.74551 10.788 1.74551 7.75932C1.74551 4.73063 3.96406 2.2667 6.69113 2.2667Z" fill="#323232"/>
</svg>
